<svg width="162" height="23" viewBox="0 0 162 23" fill="none" xmlns="http://www.w3.org/2000/svg">
<path d="M60.8831 7.24486C62.0704 6.18726 63.723 5.65847 65.8409 5.65847C67.6539 5.65847 69.0498 6.03269 70.0285 6.78114C71.0233 7.5296 71.6811 8.66854 72.002 10.198L69.7397 10.7105C69.5793 9.718 69.1942 8.99396 68.5845 8.53838C67.9748 8.0828 67.0603 7.85501 65.8409 7.85501C62.8887 7.85501 61.4126 9.15666 61.4126 11.76C61.4126 14.3633 62.8887 15.6649 65.8409 15.6649C67.1084 15.6649 68.031 15.429 68.6086 14.9572C69.1862 14.4853 69.5632 13.7287 69.7397 12.6874L72.002 13.1999C71.6811 14.7619 71.0233 15.9334 70.0285 16.7144C69.0338 17.4791 67.6379 17.8615 65.8409 17.8615C63.723 17.8615 62.0624 17.3327 60.8591 16.2751C59.6718 15.2012 59.0781 13.6962 59.0781 11.76C59.0781 9.82376 59.6798 8.31872 60.8831 7.24486Z" fill="black"/>
<path d="M74.7167 17.6174V0.533203H77.0752V9.05091H77.1234C77.4282 7.9445 77.9818 7.10656 78.784 6.53708C79.6023 5.95134 80.6211 5.65847 81.8405 5.65847C83.4449 5.65847 84.6563 6.08964 85.4746 6.95199C86.2928 7.81433 86.702 9.09158 86.702 10.7837V17.6174H84.3675V11.3695C84.3675 9.0265 83.2524 7.85501 81.0222 7.85501C79.7547 7.85501 78.776 8.22924 78.086 8.97769C77.4122 9.72614 77.0752 10.8407 77.0752 12.3213V17.6174H74.7167Z" fill="black"/>
<path d="M91.1017 12.1017C92.0804 11.6135 94.0379 11.1417 96.974 10.6861L98.9234 10.3688L98.8994 9.88071C98.8512 8.33499 97.7682 7.56214 95.6503 7.56214C94.5433 7.56214 93.725 7.77366 93.1955 8.19669C92.666 8.60346 92.3612 9.25429 92.281 10.1492L90.3075 9.66106C90.4198 8.3594 90.9653 7.36689 91.944 6.68352C92.9228 6.00015 94.1742 5.65847 95.6985 5.65847C97.3511 5.65847 98.6747 6.03269 99.6695 6.78114C100.68 7.5296 101.186 8.60346 101.186 10.0027V17.6174H99.2122L98.8994 14.6643H98.8512C98.4982 15.6893 97.8885 16.4785 97.0221 17.0317C96.1718 17.5849 95.153 17.8615 93.9657 17.8615C92.634 17.8615 91.575 17.5767 90.7888 17.0073C90.0187 16.4378 89.6336 15.6568 89.6336 14.6643C89.6336 13.444 90.123 12.5898 91.1017 12.1017ZM91.944 14.469C91.944 15.006 92.1767 15.4209 92.642 15.7137C93.1073 16.0066 93.7811 16.1531 94.6636 16.1531C95.8348 16.1531 96.8376 15.73 97.6719 14.8839C98.5063 14.0379 98.9234 13.0047 98.9234 11.7844C98.9234 11.7518 98.9234 11.7274 98.9234 11.7112L97.0221 12.004C94.9203 12.362 93.5806 12.6793 93.003 12.9559C92.297 13.3138 91.944 13.8182 91.944 14.469Z" fill="black"/>
<path d="M103.097 8.02585V5.90253H104.661L106.057 5.92693L106.611 2.24162H108.416V5.92693L109.908 5.90253H112.507V8.02585H109.908L108.416 8.00145V15.4209L108.488 15.4941H112.194V17.6174H108.777C107.91 17.6174 107.236 17.3815 106.755 16.9096C106.29 16.4215 106.057 15.7382 106.057 14.8595V8.00145L104.661 8.02585H103.097Z" fill="black"/>
<path d="M114.084 8.02585V5.90253H115.648L117.044 5.92693L117.598 2.24162H119.403V5.92693L120.895 5.90253H123.494V8.02585H120.895L119.403 8.00145V15.4209L119.475 15.4941H123.181V17.6174H119.764C118.897 17.6174 118.223 17.3815 117.742 16.9096C117.277 16.4215 117.044 15.7382 117.044 14.8595V8.00145L115.648 8.02585H114.084Z" fill="black"/>
<path d="M126.371 1.50944H128.994V3.68158H126.371V1.50944ZM126.515 17.6174V5.90253H128.873V17.6174H126.515Z" fill="black"/>
<path d="M132.942 17.6174V5.90253H134.94L135.301 9.05091H135.349C136.167 6.78928 137.74 5.65847 140.066 5.65847C141.671 5.65847 142.882 6.08964 143.7 6.95199C144.519 7.81433 144.928 9.09158 144.928 10.7837V17.6174H142.593V11.3695C142.593 9.01023 141.478 7.8306 139.248 7.8306C137.98 7.8306 137.002 8.21297 136.312 8.97769C135.638 9.72614 135.301 10.8407 135.301 12.3213V17.6174H132.942Z" fill="black"/>
<path d="M148.244 17.7394C148.678 17.2839 149.311 17.0317 150.146 16.9829V16.9096C149.071 16.8446 148.533 16.3158 148.533 15.3233C148.533 14.6887 148.734 14.2331 149.135 13.9565C149.536 13.6799 150.146 13.5335 150.964 13.5172V13.4684C150.082 13.2731 149.464 12.8745 149.111 12.2725C148.774 11.6542 148.605 10.857 148.605 9.88071C148.605 8.48143 149.095 7.43197 150.074 6.73233C151.052 6.01642 152.424 5.65847 154.189 5.65847C154.879 5.65847 155.882 5.68287 157.197 5.73169C158.513 5.76423 159.724 5.7805 160.831 5.7805V7.34248H158.136V7.39129C159.227 7.70044 159.773 8.55465 159.773 9.95393C159.773 11.3695 159.347 12.3945 158.497 13.0291C157.663 13.6636 156.275 13.9809 154.333 13.9809C154.285 13.9809 154.237 13.9809 154.189 13.9809C152.248 13.9809 151.092 14.0379 150.723 14.1518C150.322 14.2819 150.122 14.526 150.122 14.8839C150.122 15.1931 150.33 15.3802 150.747 15.4453C151.181 15.4941 152.055 15.5185 153.371 15.5185H154.502C154.582 15.5185 154.67 15.5185 154.767 15.5185C157.157 15.5185 158.794 15.7463 159.676 16.2019C160.575 16.6412 161.024 17.5442 161.024 18.9109C161.024 20.1963 160.519 21.1156 159.508 21.6688C158.513 22.222 156.756 22.4986 154.237 22.4986C151.766 22.4986 150.033 22.2708 149.039 21.8153C148.06 21.3597 147.571 20.5543 147.571 19.3991C147.571 18.7482 147.795 18.195 148.244 17.7394ZM151.71 11.7356C152.224 12.1261 153.042 12.3213 154.165 12.3213C156.363 12.3213 157.462 11.4996 157.462 9.8563C157.462 9.0265 157.181 8.44075 156.62 8.09907C156.074 7.75739 155.256 7.58654 154.165 7.58654C152.015 7.58654 150.932 8.34313 150.916 9.8563C150.916 10.7186 151.181 11.3451 151.71 11.7356ZM149.881 18.9109C149.881 19.6268 150.202 20.0987 150.844 20.3265C151.485 20.5705 152.617 20.6926 154.237 20.6926C155.874 20.6926 157.013 20.5705 157.655 20.3265C158.312 20.0987 158.641 19.6268 158.641 18.9109C158.641 18.1462 158.377 17.6662 157.847 17.471C157.334 17.2595 156.211 17.1537 154.478 17.1537H151.518C150.427 17.349 149.881 17.9347 149.881 18.9109Z" fill="black"/>
<path fill-rule="evenodd" clip-rule="evenodd" d="M10.8628 0.5C5.89224 0.5 1.8628 4.52943 1.8628 9.49999V11.8384C1.8628 12.3537 1.90612 12.859 1.98931 13.3506L0.0348893 20.7474C-0.162951 21.4962 0.512684 22.1813 1.25103 21.9807L7.64082 20.2445C8.64117 20.6281 9.72744 20.8384 10.8628 20.8384H38.3224C43.293 20.8384 47.3224 16.8089 47.3224 11.8384V9.5C47.3224 4.52944 43.293 0.5 38.3224 0.5H10.8628ZM41.4744 7.44925C41.4744 8.19808 40.8758 8.80514 40.1373 8.80514C39.3989 8.80514 38.8003 8.19808 38.8003 7.44925C38.8003 6.70041 39.3989 6.09336 40.1373 6.09336C40.8758 6.09336 41.4744 6.70041 41.4744 7.44925ZM33.9538 8.80514C34.6922 8.80514 35.2908 8.19808 35.2908 7.44925C35.2908 6.70041 34.6922 6.09336 33.9538 6.09336C33.2153 6.09336 32.6167 6.70041 32.6167 7.44925C32.6167 8.19808 33.2153 8.80514 33.9538 8.80514Z" fill="#3A3A3A"/>
</svg>
